<?xml version="1.0" encoding="UTF-8" standalone="no"?>
<svg
   width="96"
   height="92.988686"
   viewBox="0 0 96 92.988686"
   fill="none"
   version="1.1"
   id="svg4"
   sodipodi:docname="GitHub_Invertocat_Black_Clearspace.svg"
   inkscape:version="1.2.2 (732a01da63, 2022-12-09)"
   xmlns:inkscape="http://www.inkscape.org/namespaces/inkscape"
   xmlns:sodipodi="http://sodipodi.sourceforge.net/DTD/sodipodi-0.dtd"
   xmlns="http://www.w3.org/2000/svg"
   xmlns:svg="http://www.w3.org/2000/svg">
  <defs
     id="defs8" />
  <sodipodi:namedview
     id="namedview6"
     pagecolor="#ffffff"
     bordercolor="#000000"
     borderopacity="0.25"
     inkscape:showpageshadow="2"
     inkscape:pageopacity="0.0"
     inkscape:pagecheckerboard="0"
     inkscape:deskcolor="#d1d1d1"
     showgrid="false"
     inkscape:zoom="6.875"
     inkscape:cx="30.909091"
     inkscape:cy="46.981818"
     inkscape:window-width="1920"
     inkscape:window-height="1009"
     inkscape:window-x="1016"
     inkscape:window-y="-8"
     inkscape:window-maximized="1"
     inkscape:current-layer="svg4" />
  <path
     d="M 40.5937,67.9688 C 28.2187,66.4688 19.5,57.5625 19.5,46.0313 c 0,-4.6875 1.6875,-9.75 4.5,-13.125 -1.2188,-3.0938 -1.0313,-9.6563 0.375,-12.375 3.75,-0.4688 8.8125,1.5 11.8125,4.2187 3.5625,-1.125 7.3125,-1.6875 11.9062,-1.6875 4.5938,0 8.3438,0.5625 11.7188,1.5938 2.9062,-2.625 8.0625,-4.5938 11.8125,-4.125 1.3125,2.5312 1.5,9.0937 0.2812,12.2812 3,3.5625 4.5938,8.3438 4.5938,13.2188 0,11.5312 -8.7188,20.25 -21.2813,21.8437 3.1875,2.0625 5.3438,6.5625 5.3438,11.7188 v 9.7502 c 0,2.812 2.3437,4.406 5.1562,3.281 C 82.6875,86.156 96,69.1875 96,48.1875 96,21.6563 74.4375,0 47.9062,0 21.375,0 0,21.6562 0,48.1875 0,69 13.2187,86.25 31.0312,92.719 33.5625,93.656 36,91.969 36,89.438 V 81.9375 C 34.6875,82.5 33,82.875 31.5,82.875 25.3125,82.875 21.6562,79.5 19.0312,73.2188 18,70.6875 16.875,69.1875 14.7187,68.9063 c -1.125,-0.0938 -1.5,-0.5625 -1.5,-1.125 0,-1.125 1.875,-1.9688 3.75,-1.9688 2.7188,0 5.0625,1.6875 7.5,5.1563 1.875,2.7187 3.8438,3.9375 6.1875,3.9375 2.3438,0 3.8438,-0.8438 6,-3 1.5938,-1.5938 2.8125,-3 3.9375,-3.9375 z"
     fill="#000000"
     id="path2" />
</svg>
